<svg width="674" height="644" viewBox="0 0 674 644" fill="none" xmlns="http://www.w3.org/2000/svg">
<g clip-path="url(#clip0_2_228)">
<g opacity="0.3" filter="url(#filter0_f_2_228)">
<path opacity="0.5" d="M247.257 300.54C243.579 313.222 229.289 319.328 227.075 332.958C226.761 336.625 222.753 343.517 209.24 341.752C196.216 349.323 155.895 334.612 146.048 347.266C138.799 356.581 130.821 368.199 133.637 384.948C135.808 397.862 143.036 410.592 150.36 421.583C160.972 437.503 173.496 451.983 187.025 463.446C231.115 500.817 281.597 510.545 325.282 510.679C378.51 510.844 424.623 490.287 463.438 457.413C479.448 443.855 493.786 428.162 504.808 408.185C514.953 389.793 523.207 369.229 529.578 347.459C537.695 319.745 542.267 288.672 538.866 255.054C536.285 229.485 525.315 205.102 510.125 182.842C489.368 152.411 461.463 135.132 434.442 133.185C417.773 131.984 399.267 139.205 398.495 161.745C397.91 178.94 405.851 198.264 411.003 215.918C414.441 227.715 419.13 244.423 411.269 250.577C397.974 260.985 379.458 263.975 362.692 266.083C341.275 268.776 318.347 262.981 296.057 261.563C283.22 260.747 272.82 267.043 263.687 274.742C256.348 280.934 250.413 289.667 247.257 300.54Z" fill="#FF1CF7"/>
</g>
<g opacity="0.3" filter="url(#filter1_f_2_228)">
<path opacity="0.5" d="M425.801 300.54C429.479 313.222 443.769 319.328 445.983 332.958C446.297 336.625 450.305 343.517 463.818 341.752C476.842 349.323 517.163 334.612 527.01 347.266C534.257 356.581 542.235 368.199 539.42 384.948C537.248 397.862 530.022 410.592 522.699 421.583C512.086 437.503 499.563 451.983 486.033 463.446C441.944 500.817 391.462 510.545 347.776 510.679C294.548 510.844 248.436 490.287 209.62 457.413C193.611 443.855 179.272 428.162 168.25 408.185C158.106 389.793 149.851 369.229 143.48 347.459C135.364 319.745 130.792 288.672 134.193 255.054C136.774 229.485 147.743 205.102 162.933 182.842C183.69 152.411 211.595 135.132 238.616 133.185C255.285 131.984 273.791 139.205 274.563 161.745C275.148 178.94 267.207 198.264 262.055 215.918C258.617 227.715 253.928 244.423 261.789 250.577C275.084 260.985 293.601 263.975 310.366 266.083C331.783 268.776 354.711 262.981 377.001 261.563C389.838 260.747 400.238 267.043 409.371 274.742C416.711 280.934 422.645 289.667 425.801 300.54Z" fill="#0070F3"/>
</g>
</g>
<defs>
<filter id="filter0_f_2_228" x="6.10352e-05" y="0.00152588" width="673.059" height="643.735" filterUnits="userSpaceOnUse" color-interpolation-filters="sRGB">
<feFlood flood-opacity="0" result="BackgroundImageFix"/>
<feBlend mode="normal" in="SourceGraphic" in2="BackgroundImageFix" result="shape"/>
<feGaussianBlur stdDeviation="66.5287" result="effect1_foregroundBlur_2_228"/>
</filter>
<filter id="filter1_f_2_228" x="-6.10352e-05" y="0.00152588" width="673.057" height="643.735" filterUnits="userSpaceOnUse" color-interpolation-filters="sRGB">
<feFlood flood-opacity="0" result="BackgroundImageFix"/>
<feBlend mode="normal" in="SourceGraphic" in2="BackgroundImageFix" result="shape"/>
<feGaussianBlur stdDeviation="66.5287" result="effect1_foregroundBlur_2_228"/>
</filter>
<clipPath id="clip0_2_228">
<rect width="673.27" height="643.997" fill="white" transform="translate(0 0.00134277)"/>
</clipPath>
</defs>
</svg>
