<svg width="651" height="622" viewBox="0 0 651 622" fill="none" xmlns="http://www.w3.org/2000/svg">
<g opacity="0.7">
<g clip-path="url(#clip0_2_841)">
<g opacity="0.3" filter="url(#filter0_f_2_841)">
<path opacity="0.5" d="M411.255 290.272C414.807 302.522 428.609 308.419 430.748 321.583C431.051 325.125 434.922 331.782 447.973 330.077C460.552 337.389 499.496 323.181 509.006 335.402C516.006 344.399 523.712 355.62 520.992 371.797C518.895 384.27 511.916 396.565 504.842 407.181C494.592 422.557 482.497 436.542 469.43 447.614C426.846 483.709 378.089 493.104 335.896 493.233C284.486 493.392 239.949 473.538 202.459 441.786C186.997 428.692 173.148 413.535 162.502 394.241C152.704 376.477 144.732 356.615 138.578 335.589C130.739 308.822 126.324 278.811 129.608 246.341C132.101 221.645 142.696 198.095 157.367 176.596C177.415 147.204 204.366 130.516 230.464 128.635C246.564 127.475 264.438 134.449 265.183 156.219C265.749 172.827 258.079 191.491 253.103 208.542C249.782 219.936 245.254 236.073 252.846 242.016C265.687 252.069 283.571 254.957 299.763 256.993C320.448 259.594 342.594 253.997 364.122 252.628C376.521 251.839 386.565 257.92 395.386 265.357C402.475 271.337 408.207 279.771 411.255 290.272Z" fill="#17C964" fill-opacity="0.6"/>
</g>
<g opacity="0.3" filter="url(#filter1_f_2_841)">
<path opacity="0.5" d="M238.81 290.272C235.258 302.522 221.456 308.419 219.318 321.583C219.015 325.125 215.144 331.782 202.092 330.077C189.513 337.389 150.569 323.181 141.059 335.402C134.058 344.399 126.352 355.62 129.072 371.797C131.169 384.27 138.15 396.565 145.223 407.181C155.473 422.557 167.569 436.542 180.636 447.614C223.219 483.709 271.977 493.104 314.17 493.233C365.58 493.392 410.117 473.538 447.606 441.786C463.069 428.692 476.917 413.535 487.563 394.241C497.361 376.477 505.334 356.615 511.487 335.589C519.327 308.822 523.742 278.811 520.458 246.341C517.964 221.645 507.369 198.095 492.699 176.596C472.651 147.204 445.699 130.516 419.601 128.635C403.501 127.475 385.628 134.449 384.882 156.219C384.317 172.827 391.986 191.491 396.962 208.542C400.283 219.936 404.812 236.073 397.219 242.016C384.378 252.069 366.495 254.957 350.302 256.993C329.617 259.594 307.472 253.997 285.943 252.628C273.545 251.839 263.5 257.92 254.679 265.357C247.59 271.337 241.859 279.771 238.81 290.272Z" fill="#00F0FF" fill-opacity="0.6"/>
</g>
</g>
</g>
<defs>
<filter id="filter0_f_2_841" x="-0.000137329" y="0.00132751" width="650.064" height="621.744" filterUnits="userSpaceOnUse" color-interpolation-filters="sRGB">
<feFlood flood-opacity="0" result="BackgroundImageFix"/>
<feBlend mode="normal" in="SourceGraphic" in2="BackgroundImageFix" result="shape"/>
<feGaussianBlur stdDeviation="64.2559" result="effect1_foregroundBlur_2_841"/>
</filter>
<filter id="filter1_f_2_841" x="0.000106812" y="0.00132751" width="650.066" height="621.744" filterUnits="userSpaceOnUse" color-interpolation-filters="sRGB">
<feFlood flood-opacity="0" result="BackgroundImageFix"/>
<feBlend mode="normal" in="SourceGraphic" in2="BackgroundImageFix" result="shape"/>
<feGaussianBlur stdDeviation="64.2559" result="effect1_foregroundBlur_2_841"/>
</filter>
<clipPath id="clip0_2_841">
<rect width="650.27" height="621.997" fill="white" transform="translate(0 0.0012207)"/>
</clipPath>
</defs>
</svg>
