<svg width="1249" height="1206" viewBox="0 0 1249 1206" fill="none" xmlns="http://www.w3.org/2000/svg">
<g opacity="0.7">
<path d="M153.609 887.038C195.695 974.655 301.363 1021.65 438.406 1026.66C575.424 1031.66 743.661 994.669 910.626 914.47C1077.59 834.27 1211.62 726.07 1293.36 615.99C1375.12 505.888 1404.48 394.029 1362.39 306.412C1320.31 218.795 1214.64 171.795 1077.59 166.791C940.577 161.788 772.339 198.781 605.375 278.98C438.41 359.18 304.377 467.38 222.638 577.46C140.884 687.562 111.523 799.421 153.609 887.038Z" stroke="#3F3F46"/>
<path d="M300.018 673.687C323.642 722.87 387.749 747.049 472.596 746.165C557.399 745.282 662.723 719.354 768.452 668.568C874.182 617.782 960.255 551.775 1013.95 486.131C1067.67 420.454 1088.87 355.3 1065.25 306.117C1041.62 256.934 977.515 232.755 892.668 233.638C807.865 234.521 702.541 260.449 596.811 311.235C491.082 362.021 405.009 428.029 351.314 493.672C297.59 559.349 276.393 624.503 300.018 673.687Z" stroke="#3F3F46"/>
<path d="M384.15 579.88C391.661 595.516 405.981 607.013 425.518 614.388C445.059 621.764 469.791 625.006 498.056 624.14C554.583 622.409 625.142 604.254 696.319 570.065C767.495 535.876 825.77 492.147 862.454 449.105C880.797 427.583 893.725 406.252 900.182 386.388C906.637 366.528 906.613 348.164 899.103 332.528C891.592 316.892 877.272 305.395 857.735 298.02C838.194 290.644 813.462 287.402 785.198 288.268C728.67 289.999 658.111 308.154 586.935 342.343C515.758 376.532 457.483 420.261 420.799 463.303C402.457 484.825 389.528 506.156 383.072 526.02C376.617 545.88 376.64 564.244 384.15 579.88Z" stroke="#3F3F46"/>
</g>
</svg>
